<?xml version="1.0" encoding="UTF-8"?>
<svg xmlns="http://www.w3.org/2000/svg" xmlns:xlink="http://www.w3.org/1999/xlink" width="48px" height="48px" viewBox="0 0 48 48" version="1.1">
<g id="surface1">
<path style=" stroke:none;fill-rule:evenodd;fill:rgb(0%,0%,0%);fill-opacity:1;" d="M 14.6875 8.035156 C 20.828125 7.347656 27.171875 7.347656 33.3125 8.035156 C 36.738281 8.417969 39.5 11.117188 39.902344 14.554688 C 40.636719 20.832031 40.636719 27.167969 39.902344 33.445312 C 39.5 36.882812 36.738281 39.582031 33.3125 39.964844 C 27.171875 40.652344 20.828125 40.652344 14.6875 39.964844 C 11.261719 39.582031 8.5 36.882812 8.097656 33.445312 C 7.363281 27.167969 7.363281 20.832031 8.097656 14.554688 C 8.5 11.117188 11.261719 8.417969 14.6875 8.035156 Z M 24 14.015625 C 24.828125 14.015625 25.5 14.6875 25.5 15.515625 L 25.5 22.5 L 32.484375 22.5 C 33.3125 22.5 33.984375 23.171875 33.984375 24 C 33.984375 24.828125 33.3125 25.5 32.484375 25.5 L 25.5 25.5 L 25.5 32.484375 C 25.5 33.3125 24.828125 33.984375 24 33.984375 C 23.171875 33.984375 22.5 33.3125 22.5 32.484375 L 22.5 25.5 L 15.515625 25.5 C 14.6875 25.5 14.015625 24.828125 14.015625 24 C 14.015625 23.171875 14.6875 22.5 15.515625 22.5 L 22.5 22.5 L 22.5 15.515625 C 22.5 14.6875 23.171875 14.015625 24 14.015625 Z M 24 14.015625 "/>
</g>
</svg>
