<?xml version="1.0" encoding="UTF-8"?>
<svg xmlns="http://www.w3.org/2000/svg" xmlns:xlink="http://www.w3.org/1999/xlink" width="48px" height="48px" viewBox="0 0 48 48" version="1.1">
<g id="surface1">
<path style=" stroke:none;fill-rule:nonzero;fill:rgb(0%,0%,0%);fill-opacity:1;" d="M 14.5 15.199219 C 14.5 17.132812 16.066406 18.699219 18 18.699219 L 30 18.699219 C 31.933594 18.699219 33.5 17.132812 33.5 15.199219 L 33.5 8.550781 C 33.5 8.246094 33.746094 8 34.050781 8 C 34.34375 8 34.621094 8.128906 34.8125 8.347656 L 40.738281 15.257812 C 41.558594 16.214844 41.988281 17.449219 41.9375 18.707031 L 41.253906 36.195312 C 41.148438 38.878906 38.945312 41 36.257812 41 L 35.5 41 C 34.949219 41 34.5 40.550781 34.5 40 L 34.5 30 C 34.5 28.066406 32.933594 26.5 31 26.5 L 17 26.5 C 15.066406 26.5 13.5 28.066406 13.5 30 L 13.5 40 C 13.5 40.550781 13.050781 41 12.5 41 L 12.226562 41 C 9.816406 41 7.785156 39.210938 7.480469 36.824219 C 6.492188 29.105469 6.449219 21.300781 7.351562 13.574219 L 7.476562 12.53125 C 7.777344 9.949219 9.964844 8 12.566406 8 L 13.5 8 C 14.050781 8 14.5 8.449219 14.5 9 Z M 14.5 15.199219 "/>
<path style=" stroke:none;fill-rule:nonzero;fill:rgb(0%,0%,0%);fill-opacity:1;" d="M 16.5 40 C 16.5 40.550781 16.949219 41 17.5 41 L 30.5 41 C 31.050781 41 31.5 40.550781 31.5 40 L 31.5 30 C 31.5 29.722656 31.277344 29.5 31 29.5 L 17 29.5 C 16.722656 29.5 16.5 29.722656 16.5 30 Z M 16.5 40 "/>
<path style=" stroke:none;fill-rule:nonzero;fill:rgb(0%,0%,0%);fill-opacity:1;" d="M 30.5 9 C 30.5 8.449219 30.050781 8 29.5 8 L 18.5 8 C 17.949219 8 17.5 8.449219 17.5 9 L 17.5 15.199219 C 17.5 15.476562 17.722656 15.699219 18 15.699219 L 30 15.699219 C 30.277344 15.699219 30.5 15.476562 30.5 15.199219 Z M 30.5 9 "/>
</g>
</svg>
